<svg width="45" height="40" viewBox="0 0 45 40" fill="none" xmlns="http://www.w3.org/2000/svg">
<path fill-rule="evenodd" clip-rule="evenodd" d="M42.8186 36.4103L23.3834 2.5641C22.9908 1.88034 22.0092 1.88034 21.6166 2.5641L2.1814 36.4103C1.78877 37.094 2.27955 37.9487 3.06481 37.9487H41.9352C42.7205 37.9487 43.2112 37.094 42.8186 36.4103ZM25.1503 1.53846C23.9724 -0.512819 21.0276 -0.512822 19.8498 1.53846L0.414562 35.3846C-0.763329 37.4359 0.709031 40 3.06481 40H41.9352C44.291 40 45.7633 37.4359 44.5854 35.3846L25.1503 1.53846Z" fill="white"/>
<rect x="21.6213" y="10.2565" width="2.04017" height="17.4359" rx="1.02008" fill="white"/>
<ellipse cx="22.712" cy="32.3076" rx="1.53012" ry="1.53846" fill="white"/>
</svg>
